<?xml version="1.0" encoding="UTF-8" standalone="no"?>
<!DOCTYPE svg PUBLIC "-//W3C//DTD SVG 1.1//EN"
 "http://www.w3.org/Graphics/SVG/1.1/DTD/svg11.dtd">
<!-- Generated by graphviz version 2.46.1 (0)
 -->
<!-- Pages: 1 -->
<svg width="1040pt" height="395pt"
 viewBox="0.00 0.00 1040.00 395.00" xmlns="http://www.w3.org/2000/svg" xmlns:xlink="http://www.w3.org/1999/xlink">
<g id="graph0" class="graph" transform="scale(1 1) rotate(0) translate(4 391)">
<polygon fill="white" stroke="transparent" points="-4,4 -4,-391 1036,-391 1036,4 -4,4"/>
<!-- step1 -->
<g id="node1" class="node">
<title>step1</title>
<polygon fill="#ffff99" stroke="black" points="339.5,-57 287.5,-57 287.5,-33 339.5,-33 351.5,-45 339.5,-57"/>
<text text-anchor="middle" x="319.5" y="-41.3" font-family="Times,serif" font-size="14.00">Cream</text>
</g>
<!-- step2 -->
<g id="node4" class="node">
<title>step2</title>
<polygon fill="#ffff99" stroke="black" points="519,-84 477,-84 477,-60 519,-60 531,-72 519,-84"/>
<text text-anchor="middle" x="504" y="-68.3" font-family="Times,serif" font-size="14.00">Beat</text>
</g>
<!-- step1&#45;&gt;step2 -->
<g id="edge3" class="edge">
<title>step1&#45;&gt;step2</title>
<path fill="none" stroke="black" d="M351.87,-49.64C383.69,-54.35 432.9,-61.63 466.46,-66.59"/>
<polygon fill="black" stroke="black" points="466.36,-70.12 476.76,-68.12 467.38,-63.19 466.36,-70.12"/>
</g>
<!-- ing1 -->
<g id="node2" class="node">
<title>ing1</title>
<polygon fill="#9999ff" stroke="black" points="189,-90 6,-90 6,-54 189,-54 189,-90"/>
<text text-anchor="middle" x="97.5" y="-68.3" font-family="Times,serif" font-size="14.00">butter (225g, softened)</text>
</g>
<!-- ing1&#45;&gt;step1 -->
<g id="edge1" class="edge">
<title>ing1&#45;&gt;step1</title>
<path fill="none" stroke="black" d="M189.25,-60.86C219.8,-57.11 252.4,-53.11 277.22,-50.07"/>
<polygon fill="black" stroke="black" points="277.85,-53.52 287.35,-48.82 276.99,-46.57 277.85,-53.52"/>
</g>
<!-- ing2 -->
<g id="node3" class="node">
<title>ing2</title>
<polygon fill="#9999ff" stroke="black" points="195,-36 0,-36 0,0 195,0 195,-36"/>
<text text-anchor="middle" x="97.5" y="-14.3" font-family="Times,serif" font-size="14.00">sugar (300g, granulated)</text>
</g>
<!-- ing2&#45;&gt;step1 -->
<g id="edge2" class="edge">
<title>ing2&#45;&gt;step1</title>
<path fill="none" stroke="black" d="M195.32,-29.88C224.11,-33.42 254.12,-37.1 277.31,-39.95"/>
<polygon fill="black" stroke="black" points="277.11,-43.45 287.46,-41.19 277.96,-36.5 277.11,-43.45"/>
</g>
<!-- step3 -->
<g id="node6" class="node">
<title>step3</title>
<polygon fill="#ffff99" stroke="black" points="732.5,-111 690.5,-111 690.5,-87 732.5,-87 744.5,-99 732.5,-111"/>
<text text-anchor="middle" x="717.5" y="-95.3" font-family="Times,serif" font-size="14.00">Mix</text>
</g>
<!-- step2&#45;&gt;step3 -->
<g id="edge5" class="edge">
<title>step2&#45;&gt;step3</title>
<path fill="none" stroke="black" d="M531.36,-75.36C568.93,-80.16 637.99,-88.98 680.32,-94.38"/>
<polygon fill="black" stroke="black" points="680.11,-97.88 690.47,-95.68 681,-90.94 680.11,-97.88"/>
</g>
<!-- ing3 -->
<g id="node5" class="node">
<title>ing3</title>
<polygon fill="#9999ff" stroke="black" points="393.5,-117 245.5,-117 245.5,-81 393.5,-81 393.5,-117"/>
<text text-anchor="middle" x="319.5" y="-95.3" font-family="Times,serif" font-size="14.00">sour cream (230g)</text>
</g>
<!-- ing3&#45;&gt;step2 -->
<g id="edge4" class="edge">
<title>ing3&#45;&gt;step2</title>
<path fill="none" stroke="black" d="M393.68,-88.17C418.79,-84.46 445.8,-80.46 466.69,-77.37"/>
<polygon fill="black" stroke="black" points="467.34,-80.81 476.72,-75.89 466.31,-73.89 467.34,-80.81"/>
</g>
<!-- step4 -->
<g id="node8" class="node">
<title>step4</title>
<polygon fill="#ffff99" stroke="black" points="916,-165 874,-165 874,-141 916,-141 928,-153 916,-165"/>
<text text-anchor="middle" x="901" y="-149.3" font-family="Times,serif" font-size="14.00">Mix</text>
</g>
<!-- step3&#45;&gt;step4 -->
<g id="edge7" class="edge">
<title>step3&#45;&gt;step4</title>
<path fill="none" stroke="black" d="M744.75,-103.79C768.58,-108.44 804.56,-116.22 835,-126 844.67,-129.11 854.91,-133.04 864.34,-136.94"/>
<polygon fill="black" stroke="black" points="863.23,-140.27 873.81,-140.95 865.97,-133.83 863.23,-140.27"/>
</g>
<!-- ing4 -->
<g id="node7" class="node">
<title>ing4</title>
<polygon fill="#9999ff" stroke="black" points="564,-144 444,-144 444,-108 564,-108 564,-144"/>
<text text-anchor="middle" x="504" y="-122.3" font-family="Times,serif" font-size="14.00">eggs (2, large)</text>
</g>
<!-- ing4&#45;&gt;step3 -->
<g id="edge6" class="edge">
<title>ing4&#45;&gt;step3</title>
<path fill="none" stroke="black" d="M564.2,-118.44C601.42,-113.69 648.25,-107.71 680.09,-103.65"/>
<polygon fill="black" stroke="black" points="680.8,-107.09 690.27,-102.35 679.91,-100.14 680.8,-107.09"/>
</g>
<!-- step8 -->
<g id="node17" class="node">
<title>step8</title>
<polygon fill="#ffff99" stroke="black" points="1020,-219 967,-219 967,-195 1020,-195 1032,-207 1020,-219"/>
<text text-anchor="middle" x="999.5" y="-203.3" font-family="Times,serif" font-size="14.00">Fold in</text>
</g>
<!-- step4&#45;&gt;step8 -->
<g id="edge16" class="edge">
<title>step4&#45;&gt;step8</title>
<path fill="none" stroke="black" d="M928.11,-167.61C937.35,-172.78 947.97,-178.73 958.12,-184.4"/>
<polygon fill="black" stroke="black" points="956.43,-187.47 966.86,-189.3 959.85,-181.36 956.43,-187.47"/>
</g>
<!-- ing5 -->
<g id="node9" class="node">
<title>ing5</title>
<polygon fill="#9999ff" stroke="black" points="805,-171 630,-171 630,-135 805,-135 805,-171"/>
<text text-anchor="middle" x="717.5" y="-149.3" font-family="Times,serif" font-size="14.00">vanilla extract (15mL)</text>
</g>
<!-- ing5&#45;&gt;step4 -->
<g id="edge8" class="edge">
<title>ing5&#45;&gt;step4</title>
<path fill="none" stroke="black" d="M805.26,-153C825.75,-153 846.51,-153 863.35,-153"/>
<polygon fill="black" stroke="black" points="863.81,-156.5 873.81,-153 863.81,-149.5 863.81,-156.5"/>
</g>
<!-- step5 -->
<g id="node10" class="node">
<title>step5</title>
<polygon fill="#ffff99" stroke="black" points="520,-381 476,-381 476,-357 520,-357 532,-369 520,-381"/>
<text text-anchor="middle" x="504" y="-365.3" font-family="Times,serif" font-size="14.00">Toast</text>
</g>
<!-- step6 -->
<g id="node12" class="node">
<title>step6</title>
<polygon fill="#ffff99" stroke="black" points="780,-381 643,-381 643,-357 780,-357 792,-369 780,-381"/>
<text text-anchor="middle" x="717.5" y="-365.3" font-family="Times,serif" font-size="14.00">Process to crumbs</text>
</g>
<!-- step5&#45;&gt;step6 -->
<g id="edge10" class="edge">
<title>step5&#45;&gt;step6</title>
<path fill="none" stroke="black" d="M532.22,-369C557.5,-369 596.51,-369 632.14,-369"/>
<polygon fill="black" stroke="black" points="632.57,-372.5 642.57,-369 632.57,-365.5 632.57,-372.5"/>
</g>
<!-- ing6 -->
<g id="node11" class="node">
<title>ing6</title>
<polygon fill="#9999ff" stroke="black" points="408,-387 231,-387 231,-351 408,-351 408,-387"/>
<text text-anchor="middle" x="319.5" y="-365.3" font-family="Times,serif" font-size="14.00">pecans (25g, chopped)</text>
</g>
<!-- ing6&#45;&gt;step5 -->
<g id="edge9" class="edge">
<title>ing6&#45;&gt;step5</title>
<path fill="none" stroke="black" d="M408.01,-369C428.27,-369 448.78,-369 465.53,-369"/>
<polygon fill="black" stroke="black" points="465.95,-372.5 475.95,-369 465.95,-365.5 465.95,-372.5"/>
</g>
<!-- step7 -->
<g id="node13" class="node">
<title>step7</title>
<polygon fill="#ffff99" stroke="black" points="919,-273 871,-273 871,-249 919,-249 931,-261 919,-273"/>
<text text-anchor="middle" x="901" y="-257.3" font-family="Times,serif" font-size="14.00">Whisk</text>
</g>
<!-- step6&#45;&gt;step7 -->
<g id="edge11" class="edge">
<title>step6&#45;&gt;step7</title>
<path fill="none" stroke="black" d="M792.01,-359.78C806.98,-355.8 822.08,-350.12 835,-342 856.19,-328.68 873.51,-305.99 884.93,-288.01"/>
<polygon fill="black" stroke="black" points="888.14,-289.47 890.35,-279.11 882.16,-285.83 888.14,-289.47"/>
</g>
<!-- step7&#45;&gt;step8 -->
<g id="edge15" class="edge">
<title>step7&#45;&gt;step8</title>
<path fill="none" stroke="black" d="M931.22,-244.65C939.62,-239.95 948.94,-234.73 957.9,-229.72"/>
<polygon fill="black" stroke="black" points="959.68,-232.74 966.69,-224.8 956.26,-226.63 959.68,-232.74"/>
</g>
<!-- ing7 -->
<g id="node14" class="node">
<title>ing7</title>
<polygon fill="#9999ff" stroke="black" points="799.5,-333 635.5,-333 635.5,-297 799.5,-297 799.5,-333"/>
<text text-anchor="middle" x="717.5" y="-311.3" font-family="Times,serif" font-size="14.00">baking powder (14g)</text>
</g>
<!-- ing7&#45;&gt;step7 -->
<g id="edge12" class="edge">
<title>ing7&#45;&gt;step7</title>
<path fill="none" stroke="black" d="M799.51,-298.06C811.5,-295.02 823.63,-291.65 835,-288 843.71,-285.2 852.88,-281.74 861.5,-278.23"/>
<polygon fill="black" stroke="black" points="863.06,-281.37 870.94,-274.28 860.36,-274.91 863.06,-281.37"/>
</g>
<!-- ing8 -->
<g id="node15" class="node">
<title>ing8</title>
<polygon fill="#9999ff" stroke="black" points="762,-279 673,-279 673,-243 762,-243 762,-279"/>
<text text-anchor="middle" x="717.5" y="-257.3" font-family="Times,serif" font-size="14.00">salt (1.5g)</text>
</g>
<!-- ing8&#45;&gt;step7 -->
<g id="edge13" class="edge">
<title>ing8&#45;&gt;step7</title>
<path fill="none" stroke="black" d="M762.44,-261C792.43,-261 831.82,-261 860.76,-261"/>
<polygon fill="black" stroke="black" points="860.91,-264.5 870.91,-261 860.91,-257.5 860.91,-264.5"/>
</g>
<!-- ing9 -->
<g id="node16" class="node">
<title>ing9</title>
<polygon fill="#9999ff" stroke="black" points="835,-225 600,-225 600,-189 835,-189 835,-225"/>
<text text-anchor="middle" x="717.5" y="-203.3" font-family="Times,serif" font-size="14.00">all&#45;purpose flour (125g, sifted)</text>
</g>
<!-- ing9&#45;&gt;step7 -->
<g id="edge14" class="edge">
<title>ing9&#45;&gt;step7</title>
<path fill="none" stroke="black" d="M803.89,-225.07C814.44,-227.8 825.02,-230.79 835,-234 843.71,-236.8 852.88,-240.26 861.5,-243.77"/>
<polygon fill="black" stroke="black" points="860.36,-247.09 870.94,-247.72 863.06,-240.63 860.36,-247.09"/>
</g>
</g>
</svg>
